<?xml version="1.0" encoding="utf-8"?>
<!-- Generator: Adobe Illustrator 16.0.0, SVG Export Plug-In . SVG Version: 6.00 Build 0)  -->
<!DOCTYPE svg PUBLIC "-//W3C//DTD SVG 1.1//EN" "http://www.w3.org/Graphics/SVG/1.1/DTD/svg11.dtd">
<svg version="1.1" id="Layer_1" xmlns="http://www.w3.org/2000/svg" xmlns:xlink="http://www.w3.org/1999/xlink" x="0px" y="0px"
	 width="976.105px" height="224.987px" viewBox="112.497 75.012 976.105 224.987"
	 enable-background="new 112.497 75.012 976.105 224.987" xml:space="preserve">
<g id="Layer_1_1_">
</g>
<g id="Capa_1">
	<g>
		<g>
			<path fill="#29ADE3" d="M239.918,118.236l13.224-36.049l-43.197-7.175l-6.824,35.354c-0.051,0-0.103-0.002-0.155-0.002
				c-49.964,0-90.469,40.502-90.469,90.467s40.505,90.467,90.469,90.467c49.964,0,90.469-40.502,90.469-90.467
				C293.436,164.032,271.46,132.367,239.918,118.236z"/>
			<g>
				<circle fill="#EE3E57" cx="209.886" cy="209.886" r="90.113"/>
				<g>
					<path fill="#FFFFFF" d="M209.083,264.987c-2.584,9.544-12.527,15.185-22.201,12.564c-9.677-2.617-15.416-12.501-12.837-22.059
						c2.594-9.553,12.537-15.186,22.208-12.57C205.935,245.551,211.671,255.427,209.083,264.987z"/>
					<polygon fill="#FFFFFF" points="259.727,91.354 215.015,213.248 192.458,209.617 216.664,84.198 					"/>
				</g>
			</g>
		</g>
		<g>
			<g>
				<path fill="#677784" d="M407.656,154.26c0,18.986-15.377,33.705-35.222,33.705c-19.841,0-35.218-14.719-35.218-33.705
					c0-19.082,15.377-33.508,35.218-33.508C392.279,120.752,407.656,135.276,407.656,154.26z M348.609,154.26
					c0,13.201,10.917,23.641,23.924,23.641c13.005,0,23.638-10.439,23.638-23.641c0-13.193-10.633-23.445-23.638-23.445
					C359.436,130.814,348.609,141.066,348.609,154.26z"/>
				<path fill="#677784" d="M466.039,187.488V159.96h-35.221v27.528h-11.204v-66.457h11.204v28.865h35.221v-28.865h11.207v66.457
					H466.039z"/>
				<path fill="#677784" d="M579.104,187.488l-0.095-49.651l-20.98,42.72h-7.311l-20.983-42.72v49.651h-10.542v-66.457h13.296
					l21.93,44.148l21.836-44.148h13.193v66.457H579.104z"/>
				<path fill="#677784" d="M634.26,187.488h-11.11v-21.74l-24.782-44.717h11.304l18.984,32.379l18.604-32.379h11.396l-24.396,44.34
					L634.26,187.488L634.26,187.488z"/>
				<path fill="#677784" d="M746.656,131.002l-6.553,8.163c-4.84-5.22-11.768-8.444-18.512-8.444
					c-13.292,0-23.729,10.253-23.729,23.351c0,13.103,10.438,23.452,23.729,23.452c6.646,0,13.482-3.037,18.512-7.881l6.65,7.404
					c-6.741,6.646-16.335,10.918-25.729,10.918c-19.462,0-34.558-14.719-34.558-33.793c0-18.896,15.286-33.42,34.935-33.42
					C730.804,120.752,740.201,124.641,746.656,131.002z"/>
				<path fill="#677784" d="M821.648,154.26c0,18.986-15.377,33.705-35.217,33.705c-19.847,0-35.226-14.719-35.226-33.705
					c0-19.082,15.379-33.508,35.226-33.508C806.271,120.752,821.648,135.276,821.648,154.26z M762.604,154.26
					c0,13.201,10.918,23.641,23.922,23.641c13.005,0,23.638-10.439,23.638-23.641c0-13.193-10.633-23.445-23.638-23.445
					C773.422,130.814,762.604,141.066,762.604,154.26z"/>
				<path fill="#677784" d="M873.576,177.332v10.156h-39.971v-66.457h11.207v56.301H873.576z"/>
				<path fill="#677784" d="M949.237,154.26c0,18.986-15.38,33.705-35.219,33.705c-19.844,0-35.224-14.719-35.224-33.705
					c0-19.082,15.379-33.508,35.224-33.508C933.857,120.752,949.237,135.276,949.237,154.26z M890.19,154.26
					c0,13.201,10.919,23.641,23.924,23.641s23.638-10.439,23.638-23.641c0-13.193-10.633-23.445-23.638-23.445
					C901.012,130.814,890.19,141.066,890.19,154.26z"/>
				<path fill="#677784" d="M1017.684,159.96c0,17.372-10.916,28.005-28.861,28.005c-17.938,0-28.955-10.633-28.955-28.005v-38.929
					h11.204v38.929c0,11.201,6.93,17.94,17.85,17.94c10.821,0,17.565-6.646,17.565-17.94v-38.929h11.198L1017.684,159.96
					L1017.684,159.96z"/>
				<path fill="#677784" d="M1063.724,167.363c-0.952,0.098-1.988,0.098-3.032,0.098h-15.768v20.027h-11.199v-66.457h26.967
					c16.988,0,26.769,8.264,26.769,22.694c0,10.63-4.939,18.134-13.767,21.555l14.909,22.208h-12.724L1063.724,167.363z
					 M1060.689,157.396c10.25,0,16.135-4.369,16.135-13.389c0-8.731-5.885-12.91-16.135-12.91h-15.767v26.299H1060.689z"/>
			</g>
		</g>
		<g>
			<path fill="#29ADE3" d="M379.414,246.235v12.06c-3.276,2.612-7.881,4.367-12.343,4.367c-9.639,0-17.33-7.453-17.33-16.808
				c0-9.354,7.738-16.711,17.519-16.711c4.607,0,9.069,1.756,12.25,4.558l-2.183,2.848c-2.708-2.421-6.362-3.845-10.067-3.845
				c-7.597,0-13.674,5.839-13.674,13.15c0,7.359,6.126,13.199,13.723,13.199c2.99,0,6.174-1.044,8.736-2.801v-10.018H379.414
				L379.414,246.235z"/>
			<path fill="#29ADE3" d="M422.462,251.885c-0.713,0.05-1.473,0.097-2.233,0.097H411.4v10.492h-3.799v-33.236h12.627
				c8.311,0,13.105,4.086,13.105,11.16c0,5.506-2.659,9.209-7.454,10.776l7.788,11.3h-4.323L422.462,251.885z M420.229,248.324
				c6.031,0,9.45-2.659,9.45-7.835c0-5.03-3.419-7.598-9.45-7.598H411.4v15.433H420.229z"/>
			<path fill="#29ADE3" d="M463.801,254.069l-3.706,8.402h-4.032l14.905-33.236h3.94l14.861,33.236h-4.131l-3.703-8.402H463.801z
				 M472.821,233.56l-7.408,16.854h14.909L472.821,233.56z M470.4,225.106l5.696-6.457l3.75,1.805l-5.886,4.652H470.4z"/>
			<path fill="#29ADE3" d="M517.768,232.894v11.682h15.524v3.654h-15.524v14.244h-3.798v-33.236h21.128v3.656H517.768
				L517.768,232.894z"/>
			<path fill="#29ADE3" d="M559.676,262.474v-33.236h3.798v33.236H559.676z"/>
			<path fill="#29ADE3" d="M618.873,233.985l-2.279,2.896c-2.563-2.613-6.173-4.179-9.829-4.179
				c-7.501,0-13.531,5.793-13.531,13.103c0,7.267,6.03,13.105,13.531,13.105c3.656,0,7.218-1.52,9.829-3.989l2.325,2.612
				c-3.276,3.085-7.738,5.127-12.343,5.127c-9.592,0-17.188-7.453-17.188-16.855c0-9.305,7.692-16.662,17.33-16.662
				C611.276,229.144,615.692,230.994,618.873,233.985z"/>
			<path fill="#29ADE3" d="M647.486,254.069l-3.705,8.402h-4.036l14.909-33.236h3.939l14.862,33.236h-4.131l-3.703-8.402H647.486z
				 M656.507,233.56l-7.408,16.854h14.909L656.507,233.56z"/>
			<path fill="#29ADE3" d="M741.421,262.474h-3.752v-11.252l-12.868-21.984h3.943l10.777,17.33l10.636-17.33h3.894l-12.63,21.842
				V262.474L741.421,262.474z"/>
			<path fill="#29ADE3" d="M823.723,229.235c9.686,0,17.093,7.171,17.093,16.619c0,9.447-7.455,16.617-17.234,16.617h-13.294
				v-33.236H823.723z M814.085,258.863h9.685c7.407,0,13.198-5.554,13.198-12.962c0-7.453-5.886-13.01-13.341-13.01h-9.542V258.863z
				"/>
			<path fill="#29ADE3" d="M866.721,262.474v-33.236h3.799v33.236H866.721z"/>
			<path fill="#29ADE3" d="M919.982,232.183l-1.615,3.561c-2.99-1.994-6.504-2.801-9.163-2.801c-4.273,0-7.075,1.613-7.075,4.416
				c0,8.545,18.708,4.082,18.658,16.142c0,5.556-4.889,9.116-12.01,9.116c-4.846,0-9.592-2.088-12.727-5.08l1.708-3.418
				c3.087,2.992,7.313,4.699,11.064,4.699c4.796,0,7.785-1.945,7.785-5.127c0.049-8.735-18.658-4.084-18.658-16.002
				c0-5.222,4.604-8.594,11.491-8.594C913.288,229.094,917.229,230.33,919.982,232.183z"/>
			<path fill="#29ADE3" d="M951.352,232.894v10.922h16.759v3.653h-16.759v11.396h19.371v3.609h-23.17v-33.236h22.553v3.656H951.352
				L951.352,232.894z"/>
			<path fill="#29ADE3" d="M1021.175,262.474l-19.938-26.685v26.685h-3.799v-33.236h3.94l19.939,26.731v-26.731h3.752v33.236
				H1021.175z M1013.865,221.735c1.328,0,2.041-0.854,2.041-2.469h2.468c0,3.516-1.377,5.364-3.94,5.364
				c-2.754,0-3.939-2.847-5.744-2.847c-1.33,0-2.043,0.852-2.043,2.467h-2.468c0-3.514,1.377-5.363,3.94-5.363
				C1010.589,218.89,1012.107,221.735,1013.865,221.735z"/>
			<path fill="#29ADE3" d="M1085.826,245.854c0,9.354-7.692,16.808-17.376,16.808c-9.734,0-17.426-7.453-17.426-16.808
				c0-9.398,7.691-16.711,17.426-16.711C1078.134,229.144,1085.826,236.502,1085.826,245.854z M1054.869,245.854
				c0,7.313,6.173,13.152,13.581,13.152c7.405,0,13.481-5.84,13.481-13.152c0-7.312-6.076-13.104-13.481-13.104
				C1061.042,232.75,1054.869,238.543,1054.869,245.854z"/>
		</g>
	</g>
</g>
</svg>
