<?xml version="1.0" encoding="utf-8"?>
<!-- Generator: Adobe Illustrator 16.0.0, SVG Export Plug-In . SVG Version: 6.00 Build 0)  -->
<!DOCTYPE svg PUBLIC "-//W3C//DTD SVG 1.1//EN" "http://www.w3.org/Graphics/SVG/1.1/DTD/svg11.dtd">
<svg version="1.1" id="Layer_1" xmlns="http://www.w3.org/2000/svg" xmlns:xlink="http://www.w3.org/1999/xlink" x="0px" y="0px"
	 width="244.152px" height="47.426px" viewBox="0 0 244.152 47.426" enable-background="new 0 0 244.152 47.426"
	 xml:space="preserve">
<g id="layer_2">
	<g>
		<path fill="#FFFFFF" d="M19.53,0L0,3.894v23.134c0,11.006,19.53,20.398,19.53,20.398h0.001c0,0,19.528-9.393,19.528-20.398V3.894
			L19.53,0z M35.785,27.028c0,6.611-10.843,13.578-16.254,16.333H19.53c-5.414-2.755-16.256-9.722-16.256-16.333v-0.902l16.256-1.86
			l16.255,1.86V27.028z M3.274,22.339V6.634l16.257-3.298l16.254,3.298v15.705H3.274z"/>
		<g>
			<path fill="#FFFFFF" d="M48.862,8.351h7.181c1.918,0,3.406,0.475,4.461,1.422c1.055,0.948,1.581,2.287,1.581,4.016v5.937
				c0,1.73-0.526,3.069-1.581,4.017c-1.055,0.948-2.542,1.421-4.461,1.421h-2.88V32.7h-4.301V8.351z M57.82,14.216
				c0-1.422-0.747-2.132-2.239-2.132h-2.417v9.384h2.417c1.493,0,2.239-0.723,2.239-2.168V14.216z"/>
			<path fill="#FFFFFF" d="M75.451,32.7l-1.173-6.076h-5.475L67.666,32.7h-4.088l5.048-24.349h5.937L79.574,32.7H75.451z
				 M69.479,22.996h4.087L71.505,12.19L69.479,22.996z"/>
			<path fill="#FFFFFF" d="M86.115,23.529V32.7h-4.267V8.351h7.181c1.919,0,3.406,0.467,4.46,1.404c1.055,0.936,1.582,2.269,1.582,4
				v4.158c0,2.75-0.995,4.479-2.986,5.189l3.839,9.598h-4.691l-3.376-9.17L86.115,23.529L86.115,23.529z M86.115,12.012v8.069h2.487
				c0.781,0,1.345-0.171,1.688-0.515c0.343-0.344,0.517-0.906,0.517-1.688v-3.804c0-1.374-0.736-2.062-2.205-2.062H86.115z"/>
			<path fill="#FFFFFF" d="M108.935,32.7l-1.173-6.076h-5.475l-1.137,6.076h-4.088l5.047-24.349h5.936l5.013,24.349H108.935z
				 M102.963,22.996h4.088L104.99,12.19L102.963,22.996z"/>
			<path fill="#FFFFFF" d="M128.806,13.896V16.1c0,2.252-0.831,3.685-2.489,4.302c1.801,0.546,2.702,2.002,2.702,4.373v2.38
				c0,3.698-1.968,5.545-5.902,5.545h-7.784V8.351h7.572C126.837,8.351,128.806,10.199,128.806,13.896z M122.266,11.976h-2.667
				v6.577h2.667c1.563,0,2.344-0.735,2.344-2.204v-2.204C124.61,12.7,123.829,11.976,122.266,11.976z M124.824,26.907v-2.382
				c0-1.469-0.783-2.204-2.346-2.204h-2.879v6.754h2.879C124.042,29.075,124.824,28.352,124.824,26.907z"/>
			<path fill="#FFFFFF" d="M136.768,23.529V32.7h-4.267V8.351h7.182c1.918,0,3.405,0.467,4.461,1.404c1.054,0.936,1.58,2.269,1.58,4
				v4.158c0,2.75-0.994,4.479-2.984,5.189l3.839,9.598h-4.692l-3.377-9.17L136.768,23.529L136.768,23.529z M136.768,12.012v8.069
				h2.487c0.783,0,1.345-0.171,1.689-0.515c0.343-0.344,0.515-0.906,0.515-1.688v-3.804c0-1.374-0.734-2.062-2.204-2.062H136.768z"
				/>
			<path fill="#FFFFFF" d="M149.279,8.351h4.301V32.7h-4.301V8.351z"/>
			<path fill="#FFFFFF" d="M156.316,13.754c0-1.778,0.591-3.152,1.776-4.124c1.185-0.971,2.886-1.458,5.102-1.458
				s3.939,0.226,5.172,0.676v4.088c-1.374-0.545-2.998-0.818-4.87-0.818s-2.808,0.71-2.808,2.133v0.959
				c0,0.711,0.131,1.262,0.391,1.653c0.261,0.391,0.771,0.788,1.529,1.191l4.087,2.31c1.92,1.043,2.879,2.631,2.879,4.763v2.098
				c0,1.801-0.652,3.193-1.955,4.177s-3.163,1.476-5.58,1.476c-2.418,0-4.229-0.26-5.438-0.782v-4.124
				c1.517,0.641,3.234,0.96,5.154,0.96c2.347,0,3.52-0.734,3.52-2.204v-0.924c0-0.616-0.125-1.096-0.374-1.439
				c-0.25-0.343-0.705-0.692-1.367-1.049l-3.912-2.132c-2.203-1.208-3.305-2.951-3.305-5.225V13.754L156.316,13.754z"/>
			<path fill="#FFFFFF" d="M182.656,32.7l-1.172-6.076h-5.476l-1.137,6.076h-4.088l5.047-24.349h5.938L186.78,32.7H182.656z
				 M176.686,22.996h4.086l-2.062-10.806L176.686,22.996z"/>
			<path fill="#FFFFFF" d="M187.953,13.754c0-1.778,0.592-3.152,1.778-4.124c1.184-0.971,2.884-1.458,5.101-1.458
				c2.215,0,3.938,0.226,5.171,0.676v4.088c-1.375-0.545-2.998-0.818-4.87-0.818c-1.873,0-2.808,0.71-2.808,2.133v0.959
				c0,0.711,0.129,1.262,0.391,1.653c0.261,0.391,0.771,0.788,1.528,1.191l4.088,2.31c1.92,1.043,2.879,2.631,2.879,4.763v2.098
				c0,1.801-0.651,3.193-1.955,4.177c-1.305,0.983-3.164,1.476-5.582,1.476c-2.417,0-4.229-0.26-5.438-0.782v-4.124
				c1.515,0.641,3.235,0.96,5.153,0.96c2.346,0,3.52-0.734,3.52-2.204v-0.924c0-0.616-0.124-1.096-0.373-1.439
				c-0.249-0.343-0.706-0.692-1.369-1.049l-3.91-2.132c-2.203-1.208-3.306-2.951-3.306-5.225v-2.204H187.953z"/>
			<path fill="#FFFFFF" d="M217.634,8.351V32.7h-4.337V13.363l-4.087,2.986v-4.728l4.442-3.27H217.634z"/>
			<path fill="#FFFFFF" d="M235.052,24.667v3.769h-2.346V32.7h-4.052v-4.266h-8.745v-3.946l7.109-16.137h5.688v16.315H235.052
				L235.052,24.667z M228.795,24.667V12.688l-5.189,11.979H228.795z"/>
			<path fill="#FFFFFF" d="M244.152,8.351V32.7h-4.337V13.363l-4.087,2.986v-4.728l4.442-3.27H244.152z"/>
		</g>
	</g>
</g>
</svg>
