<?xml version="1.0" encoding="utf-8"?>
<!-- Generator: Adobe Illustrator 16.0.0, SVG Export Plug-In . SVG Version: 6.00 Build 0)  -->
<!DOCTYPE svg PUBLIC "-//W3C//DTD SVG 1.1//EN" "http://www.w3.org/Graphics/SVG/1.1/DTD/svg11.dtd">
<svg version="1.1" id="Layer_1" xmlns="http://www.w3.org/2000/svg" xmlns:xlink="http://www.w3.org/1999/xlink" x="0px" y="0px"
	 width="924.785px" height="967.23px" viewBox="138.124 94.48 924.785 967.23"
	 enable-background="new 138.124 94.48 924.785 967.23" xml:space="preserve">
<g id="Layer_1_1_">
</g>
<g>
	<path fill="#FFFFFF" d="M732.472,263.88l51.42-139.24l-181.59-30.16l-26.67,136.609c-141.91,12.141-253.28,131.2-253.28,276.25
		c0,153.12,124.131,277.29,277.29,277.29c153.12,0,277.29-124.17,277.29-277.29C876.932,402.35,818.531,310.94,732.472,263.88z
		 M597.172,676.89c-7.95,29.36-38.551,46.722-68.32,38.66c-29.77-8.05-47.43-38.47-39.489-67.88
		c7.971-29.39,38.569-46.72,68.33-38.67C587.481,617.08,605.132,647.46,597.172,676.89z M546.021,506.51l74.47-385.92
		l132.511,22.021L615.432,517.68L546.021,506.51z"/>
	<g>
		<g>
			<g>
				<path fill="#FFFFFF" d="M224.816,928.29c0,23.366-18.921,41.479-43.346,41.479c-24.418,0-43.346-18.112-43.346-41.479
					c0-23.485,18.928-41.242,43.346-41.242C205.896,887.048,224.816,904.924,224.816,928.29z M152.144,928.29
					c0,16.247,13.437,29.095,29.446,29.095c16.009,0,29.095-12.848,29.095-29.095c0-16.235-13.085-28.857-29.095-28.857
					C165.474,899.433,152.144,912.055,152.144,928.29z"/>
				<path fill="#FFFFFF" d="M296.675,969.188v-33.885h-43.346v33.885h-13.793v-81.795h13.793v35.525h43.346v-35.525h13.793v81.795
					H296.675z"/>
				<path fill="#FFFFFF" d="M435.834,969.188l-0.119-61.113l-25.82,52.58h-8.996l-25.827-52.58v61.113h-12.979v-81.795h16.366
					l26.991,54.341l26.873-54.341h16.24v81.795H435.834z"/>
				<path fill="#FFFFFF" d="M503.717,969.188h-13.674v-26.76l-30.504-55.035h13.918l23.366,39.853l22.892-39.853h14.024
					l-30.022,54.571V969.188z"/>
				<path fill="#FFFFFF" d="M642.05,899.664l-8.063,10.049c-5.954-6.424-14.481-10.394-22.777-10.394
					c-16.366,0-29.215,12.616-29.215,28.738s12.849,28.863,29.215,28.863c8.177,0,16.592-3.738,22.777-9.698l8.184,9.109
					c-8.296,8.184-20.099,13.438-31.662,13.438c-23.955,0-42.538-18.113-42.538-41.588c0-23.259,18.814-41.135,43.001-41.135
					C622.54,887.048,634.11,891.838,642.05,899.664z"/>
				<path fill="#FFFFFF" d="M734.352,928.29c0,23.366-18.928,41.479-43.346,41.479c-24.425,0-43.356-18.112-43.356-41.479
					c0-23.485,18.933-41.242,43.356-41.242C715.424,887.048,734.352,904.924,734.352,928.29z M661.679,928.29
					c0,16.247,13.438,29.095,29.445,29.095c16.004,0,29.09-12.848,29.09-29.095c0-16.235-13.086-28.857-29.09-28.857
					C674.996,899.433,661.679,912.055,661.679,928.29z"/>
				<path fill="#FFFFFF" d="M798.259,956.684v12.505h-49.192v-81.796h13.793v69.291H798.259L798.259,956.684z"/>
				<path fill="#FFFFFF" d="M891.38,928.29c0,23.366-18.921,41.479-43.346,41.479c-24.424,0-43.347-18.112-43.347-41.479
					c0-23.485,18.923-41.242,43.347-41.242C872.459,887.048,891.38,904.924,891.38,928.29z M818.713,928.29
					c0,16.247,13.438,29.095,29.44,29.095c16.009,0,29.095-12.848,29.095-29.095c0-16.235-13.086-28.857-29.095-28.857
					C832.024,899.433,818.713,912.055,818.713,928.29z"/>
				<path fill="#FFFFFF" d="M975.623,935.303c0,21.381-13.431,34.467-35.52,34.467c-22.077,0-35.639-13.086-35.639-34.467v-47.91
					h13.787v47.91c0,13.786,8.533,22.082,21.977,22.082c13.312,0,21.612-8.177,21.612-22.082v-47.91h13.781L975.623,935.303
					L975.623,935.303z"/>
				<path fill="#FFFFFF" d="M1032.292,944.418c-1.177,0.119-2.448,0.119-3.731,0.119h-19.408v24.65H995.37v-81.795h33.189
					c20.906,0,32.945,10.168,32.945,27.931c0,13.086-6.085,22.32-16.948,26.528l18.353,27.336h-15.659L1032.292,944.418z
					 M1028.561,932.152c12.61,0,19.854-5.378,19.854-16.484c0-10.744-7.244-15.885-19.854-15.885h-19.408v32.369H1028.561z"/>
			</g>
		</g>
		<g>
			<path fill="#FFFFFF" d="M190.058,1041.491v14.839c-4.028,3.222-9.698,5.379-15.189,5.379c-11.861,0-21.328-9.17-21.328-20.688
				c0-11.512,9.521-20.566,21.561-20.566c5.669,0,11.16,2.163,15.076,5.609l-2.687,3.506c-3.333-2.982-7.826-4.736-12.39-4.736
				c-9.348,0-16.83,7.191-16.83,16.188c0,9.058,7.541,16.247,16.89,16.247c3.678,0,7.601-1.284,10.756-3.446v-12.331H190.058
				L190.058,1041.491z"/>
			<path fill="#FFFFFF" d="M243.043,1048.444c-0.88,0.06-1.813,0.112-2.752,0.112h-10.863v12.919h-4.677v-40.908h15.54
				c10.233,0,16.135,5.026,16.135,13.738c0,6.775-3.274,11.333-9.176,13.266l9.586,13.904h-5.325L243.043,1048.444z
				 M240.291,1044.059c7.429,0,11.636-3.269,11.636-9.639c0-6.192-4.207-9.354-11.636-9.354h-10.863v18.991L240.291,1044.059
				L240.291,1044.059z"/>
			<path fill="#FFFFFF" d="M293.918,1051.137l-4.559,10.34h-4.962l18.345-40.908h4.85l18.298,40.908h-5.087l-4.559-10.34H293.918z
				 M305.024,1025.893l-9.122,20.739h18.352L305.024,1025.893z M302.047,1015.486l7.013-7.945l4.611,2.217l-7.244,5.729
				L302.047,1015.486L302.047,1015.486z"/>
			<path fill="#FFFFFF" d="M360.345,1025.066v14.381h19.105v4.499h-19.105v17.53h-4.677v-40.909h26.005v4.499H360.345z"/>
			<path fill="#FFFFFF" d="M411.921,1061.477v-40.908h4.677v40.908H411.921z"/>
			<path fill="#FFFFFF" d="M484.777,1026.415l-2.806,3.565c-3.154-3.216-7.595-5.146-12.093-5.146
				c-9.234,0-16.658,7.132-16.658,16.129c0,8.943,7.424,16.128,16.658,16.128c4.498,0,8.878-1.866,12.093-4.907l2.864,3.215
				c-4.035,3.797-9.525,6.312-15.195,6.312c-11.802,0-21.148-9.17-21.148-20.746c0-11.452,9.466-20.508,21.328-20.508
				C475.43,1020.455,480.861,1022.73,484.777,1026.415z"/>
			<path fill="#FFFFFF" d="M520,1051.137l-4.564,10.34h-4.968l18.352-40.908h4.85l18.291,40.908h-5.087l-4.552-10.34H520z
				 M531.101,1025.893l-9.115,20.739h18.345L531.101,1025.893z"/>
			<path fill="#FFFFFF" d="M635.608,1061.477h-4.618v-13.853l-15.837-27.057h4.85l13.271,21.327l13.092-21.327h4.79l-15.546,26.885
				L635.608,1061.477L635.608,1061.477z"/>
			<path fill="#FFFFFF" d="M736.906,1020.567c11.915,0,21.037,8.824,21.037,20.454c0,11.631-9.176,20.454-21.216,20.454h-16.359
				v-40.908H736.906L736.906,1020.567z M725.045,1057.031h11.915c9.122,0,16.241-6.834,16.241-15.949
				c0-9.176-7.238-16.016-16.413-16.016h-11.743V1057.031z"/>
			<path fill="#FFFFFF" d="M789.826,1061.477v-40.908h4.677v40.908H789.826z"/>
			<path fill="#FFFFFF" d="M855.379,1024.192l-1.99,4.386c-3.679-2.46-8.005-3.446-11.272-3.446c-5.266,0-8.712,1.984-8.712,5.433
				c0,10.519,23.027,5.026,22.963,19.865c0,6.84-6.016,11.221-14.779,11.221c-5.961,0-11.803-2.567-15.659-6.252l2.104-4.207
				c3.798,3.684,8.997,5.781,13.614,5.781c5.9,0,9.586-2.39,9.586-6.306c0.06-10.75-22.97-5.027-22.97-19.694
				c0-6.43,5.664-10.577,14.145-10.577C847.137,1020.396,851.986,1021.91,855.379,1024.192z"/>
			<path fill="#FFFFFF" d="M893.982,1025.066v13.447h20.627v4.492h-20.627v14.024h23.843v4.444h-28.515v-40.908h27.754v4.498
				h-23.082V1025.066z"/>
			<path fill="#FFFFFF" d="M979.926,1061.477l-24.544-32.845v32.845h-4.677v-40.908h4.85l24.543,32.903v-32.903h4.617v40.908
				H979.926z M970.929,1011.339c1.628,0,2.509-1.052,2.509-3.037h3.041c0,4.32-1.698,6.598-4.849,6.598
				c-3.394,0-4.854-3.5-7.072-3.5c-1.64,0-2.52,1.046-2.52,3.035h-3.03c0-4.325,1.688-6.603,4.85-6.603
				C966.895,1007.832,968.766,1011.339,970.929,1011.339z"/>
			<path fill="#FFFFFF" d="M1059.498,1041.021c0,11.518-9.473,20.688-21.395,20.688c-11.979,0-21.44-9.17-21.44-20.688
				c0-11.569,9.461-20.566,21.44-20.566C1050.025,1020.455,1059.498,1029.511,1059.498,1041.021z M1021.395,1041.021
				c0,9.004,7.595,16.188,16.711,16.188c9.114,0,16.598-7.185,16.598-16.188c0-8.996-7.482-16.129-16.598-16.129
				C1028.988,1024.895,1021.395,1032.025,1021.395,1041.021z"/>
		</g>
	</g>
</g>
</svg>
