<?xml version="1.0" encoding="utf-8"?>
<!-- Generator: Adobe Illustrator 16.0.0, SVG Export Plug-In . SVG Version: 6.00 Build 0)  -->
<!DOCTYPE svg PUBLIC "-//W3C//DTD SVG 1.1//EN" "http://www.w3.org/Graphics/SVG/1.1/DTD/svg11.dtd">
<svg version="1.1" id="Layer_1" xmlns="http://www.w3.org/2000/svg" xmlns:xlink="http://www.w3.org/1999/xlink" x="0px" y="0px"
	 width="968.88px" height="224.41px" viewBox="119.262 75.284 968.88 224.41" enable-background="new 119.262 75.284 968.88 224.41"
	 xml:space="preserve">
<g id="Layer_1_1_">
</g>
<g>
	<g>
		<g>
			<path fill="#FFFFFF" d="M407.196,154.26c0,18.986-15.377,33.705-35.223,33.705c-19.841,0-35.218-14.719-35.218-33.705
				c0-19.082,15.377-33.508,35.218-33.508C391.819,120.752,407.196,135.276,407.196,154.26z M348.149,154.26
				c0,13.201,10.917,23.641,23.924,23.641c13.005,0,23.638-10.439,23.638-23.641c0-13.193-10.633-23.445-23.638-23.445
				C358.976,130.814,348.149,141.066,348.149,154.26z"/>
			<path fill="#FFFFFF" d="M465.578,187.488V159.96h-35.221v27.528h-11.203v-66.457h11.203v28.865h35.221v-28.865h11.207v66.457
				H465.578z"/>
			<path fill="#FFFFFF" d="M578.645,187.488l-0.096-49.651l-20.98,42.72h-7.311l-20.983-42.72v49.651h-10.541v-66.457h13.296
				l21.93,44.148l21.836-44.148h13.193v66.457H578.645z"/>
			<path fill="#FFFFFF" d="M633.8,187.488H622.69v-21.74l-24.782-44.717h11.304l18.984,32.379l18.604-32.379h11.396l-24.396,44.34
				L633.8,187.488L633.8,187.488z"/>
			<path fill="#FFFFFF" d="M746.195,131.002l-6.554,8.163c-4.839-5.22-11.767-8.444-18.51-8.444
				c-13.292,0-23.729,10.253-23.729,23.351c0,13.103,10.438,23.452,23.729,23.452c6.646,0,13.482-3.037,18.51-7.881l6.651,7.404
				c-6.741,6.646-16.335,10.918-25.729,10.918c-19.464,0-34.559-14.719-34.559-33.793c0-18.896,15.286-33.42,34.936-33.42
				C730.344,120.752,739.741,124.641,746.195,131.002z"/>
			<path fill="#FFFFFF" d="M821.188,154.26c0,18.986-15.377,33.705-35.215,33.705c-19.848,0-35.227-14.719-35.227-33.705
				c0-19.082,15.379-33.508,35.227-33.508C805.811,120.752,821.188,135.276,821.188,154.26z M762.144,154.26
				c0,13.201,10.917,23.641,23.922,23.641c13.006,0,23.639-10.439,23.639-23.641c0-13.193-10.633-23.445-23.639-23.445
				C772.963,130.814,762.144,141.066,762.144,154.26z"/>
			<path fill="#FFFFFF" d="M873.116,177.332v10.156h-39.97v-66.457h11.205v56.301H873.116z"/>
			<path fill="#FFFFFF" d="M948.777,154.26c0,18.986-15.379,33.705-35.22,33.705c-19.844,0-35.223-14.719-35.223-33.705
				c0-19.082,15.379-33.508,35.223-33.508C933.398,120.752,948.777,135.276,948.777,154.26z M889.73,154.26
				c0,13.201,10.92,23.641,23.924,23.641c13.005,0,23.638-10.439,23.638-23.641c0-13.193-10.633-23.445-23.638-23.445
				C900.552,130.814,889.73,141.066,889.73,154.26z"/>
			<path fill="#FFFFFF" d="M1017.225,159.96c0,17.372-10.918,28.005-28.861,28.005c-17.938,0-28.955-10.633-28.955-28.005v-38.929
				h11.204v38.929c0,11.201,6.93,17.94,17.85,17.94c10.82,0,17.563-6.646,17.563-17.94v-38.929h11.199V159.96L1017.225,159.96z"/>
			<path fill="#FFFFFF" d="M1063.264,167.363c-0.953,0.098-1.988,0.098-3.032,0.098h-15.769v20.027h-11.197v-66.457h26.966
				c16.987,0,26.769,8.264,26.769,22.694c0,10.63-4.939,18.134-13.767,21.555l14.909,22.208h-12.725L1063.264,167.363z
				 M1060.23,157.396c10.25,0,16.134-4.369,16.134-13.389c0-8.731-5.884-12.91-16.134-12.91h-15.769v26.299H1060.23z"/>
		</g>
	</g>
	<g>
		<path fill="#FFFFFF" d="M378.954,246.235v12.06c-3.276,2.612-7.881,4.367-12.343,4.367c-9.64,0-17.33-7.453-17.33-16.808
			c0-9.354,7.738-16.711,17.519-16.711c4.606,0,9.069,1.756,12.25,4.558l-2.183,2.848c-2.709-2.421-6.362-3.845-10.067-3.845
			c-7.597,0-13.674,5.839-13.674,13.15c0,7.359,6.126,13.199,13.723,13.199c2.989,0,6.174-1.044,8.736-2.801v-10.018H378.954
			L378.954,246.235z"/>
		<path fill="#FFFFFF" d="M422.002,251.885c-0.713,0.05-1.473,0.097-2.232,0.097h-8.829v10.492h-3.799v-33.236h12.628
			c8.311,0,13.104,4.086,13.104,11.16c0,5.506-2.658,9.209-7.454,10.776l7.788,11.3h-4.323L422.002,251.885z M419.77,248.324
			c6.03,0,9.449-2.659,9.449-7.835c0-5.03-3.419-7.598-9.449-7.598h-8.829v15.433H419.77z"/>
		<path fill="#FFFFFF" d="M463.341,254.069l-3.705,8.402h-4.032l14.905-33.236h3.94l14.861,33.236h-4.132l-3.702-8.402H463.341z
			 M472.361,233.56l-7.408,16.854h14.909L472.361,233.56z M469.94,225.106l5.696-6.457l3.749,1.805l-5.886,4.652H469.94z"/>
		<path fill="#FFFFFF" d="M517.308,232.894v11.682h15.524v3.654h-15.524v14.244h-3.798v-33.236h21.129v3.656H517.308
			L517.308,232.894z"/>
		<path fill="#FFFFFF" d="M559.216,262.474v-33.236h3.798v33.236H559.216z"/>
		<path fill="#FFFFFF" d="M618.412,233.985l-2.278,2.896c-2.563-2.613-6.173-4.179-9.829-4.179c-7.501,0-13.53,5.793-13.53,13.103
			c0,7.267,6.029,13.105,13.53,13.105c3.656,0,7.217-1.52,9.829-3.989l2.325,2.612c-3.276,3.085-7.738,5.127-12.343,5.127
			c-9.592,0-17.188-7.453-17.188-16.855c0-9.305,7.692-16.662,17.33-16.662C610.816,229.144,615.232,230.994,618.412,233.985z"/>
		<path fill="#FFFFFF" d="M647.026,254.069l-3.705,8.402h-4.036l14.909-33.236h3.939l14.862,33.236h-4.132l-3.702-8.402H647.026z
			 M656.047,233.56l-7.408,16.854h14.909L656.047,233.56z"/>
		<path fill="#FFFFFF" d="M740.961,262.474h-3.752v-11.252l-12.867-21.984h3.942l10.776,17.33l10.637-17.33h3.894l-12.63,21.842
			V262.474L740.961,262.474z"/>
		<path fill="#FFFFFF" d="M823.263,229.235c9.686,0,17.094,7.171,17.094,16.619c0,9.447-7.455,16.617-17.234,16.617h-13.295v-33.236
			H823.263z M813.625,258.863h9.684c7.408,0,13.199-5.554,13.199-12.962c0-7.453-5.887-13.01-13.341-13.01h-9.542V258.863z"/>
		<path fill="#FFFFFF" d="M866.261,262.474v-33.236h3.799v33.236H866.261z"/>
		<path fill="#FFFFFF" d="M919.521,232.183l-1.613,3.561c-2.99-1.994-6.504-2.801-9.163-2.801c-4.273,0-7.075,1.613-7.075,4.416
			c0,8.545,18.708,4.082,18.658,16.142c0,5.556-4.889,9.116-12.01,9.116c-4.845,0-9.592-2.088-12.726-5.08l1.707-3.418
			c3.088,2.992,7.313,4.699,11.064,4.699c4.796,0,7.784-1.945,7.784-5.127c0.05-8.735-18.657-4.084-18.657-16.002
			c0-5.222,4.604-8.594,11.489-8.594C912.828,229.094,916.768,230.33,919.521,232.183z"/>
		<path fill="#FFFFFF" d="M950.891,232.894v10.922h16.761v3.653h-16.761v11.396h19.371v3.609h-23.17v-33.236h22.553v3.656H950.891
			L950.891,232.894z"/>
		<path fill="#FFFFFF" d="M1020.715,262.474l-19.938-26.685v26.685h-3.8v-33.236h3.941l19.939,26.731v-26.731h3.752v33.236H1020.715
			z M1013.405,221.735c1.328,0,2.041-0.854,2.041-2.469h2.468c0,3.516-1.377,5.364-3.939,5.364c-2.756,0-3.94-2.847-5.744-2.847
			c-1.331,0-2.045,0.852-2.045,2.467h-2.467c0-3.514,1.377-5.363,3.939-5.363C1010.129,218.89,1011.648,221.735,1013.405,221.735z"
			/>
		<path fill="#FFFFFF" d="M1085.366,245.854c0,9.354-7.692,16.808-17.376,16.808c-9.734,0-17.426-7.453-17.426-16.808
			c0-9.398,7.69-16.711,17.426-16.711C1077.674,229.144,1085.366,236.502,1085.366,245.854z M1054.408,245.854
			c0,7.313,6.174,13.152,13.582,13.152c7.404,0,13.481-5.84,13.481-13.152c0-7.312-6.077-13.104-13.481-13.104
			C1060.582,232.75,1054.408,238.543,1054.408,245.854z"/>
	</g>
	<path fill="#FFFFFF" d="M252.617,130.366l16.721-45.275l-59.047-9.807l-8.672,44.42c-46.144,3.947-82.357,42.661-82.357,89.826
		c0,49.787,40.363,90.164,90.164,90.164c49.789,0,90.164-40.375,90.164-90.164C299.59,175.391,280.601,145.668,252.617,130.366z
		 M208.623,264.66c-2.585,9.547-12.535,15.19-22.216,12.571c-9.679-2.617-15.421-12.51-12.84-22.072
		c2.591-9.557,12.541-15.191,22.218-12.574C205.472,245.213,211.211,255.091,208.623,264.66z M191.99,209.26l24.215-125.486
		l43.088,7.16l-44.732,121.958L191.99,209.26z"/>
</g>
</svg>
