<?xml version="1.0" encoding="UTF-8" standalone="no"?>
<!-- Generator: Adobe Illustrator 16.0.0, SVG Export Plug-In . SVG Version: 6.00 Build 0)  -->

<svg
   version="1.1"
   id="Layer_1"
   x="0px"
   y="0px"
   width="208.649px"
   height="161.903px"
   viewBox="19.488 19.048 208.649 161.903"
   enable-background="new 19.488 19.048 208.649 161.903"
   xml:space="preserve"
   sodipodi:docname="imagotipo-cuadrado-naranja.svg"
   inkscape:version="1.1.1 (3bf5ae0d25, 2021-09-20)"
   xmlns:inkscape="http://www.inkscape.org/namespaces/inkscape"
   xmlns:sodipodi="http://sodipodi.sourceforge.net/DTD/sodipodi-0.dtd"
   xmlns="http://www.w3.org/2000/svg"
   xmlns:svg="http://www.w3.org/2000/svg"><defs
   id="defs43" /><sodipodi:namedview
   id="namedview41"
   pagecolor="#ffffff"
   bordercolor="#999999"
   borderopacity="1"
   inkscape:pageshadow="0"
   inkscape:pageopacity="0"
   inkscape:pagecheckerboard="0"
   showgrid="false"
   inkscape:zoom="3.2117997"
   inkscape:cx="43.122241"
   inkscape:cy="81.107176"
   inkscape:window-width="1366"
   inkscape:window-height="705"
   inkscape:window-x="-8"
   inkscape:window-y="-8"
   inkscape:window-maximized="1"
   inkscape:current-layer="Layer_1" />
<g
   id="Layer_1_1_">
</g>
<g
   id="layer_2"
   style="fill:#d5693b;fill-opacity:1">
	<g
   id="g37"
   style="fill:#d5693b;fill-opacity:1">
		<polygon
   fill="#FFFFFF"
   points="190.479,32.34 190.479,47.621 179.303,47.621 179.303,41.694 123.817,30.438 68.318,41.694     68.318,47.621 57.143,47.621 57.143,32.34 123.811,19.048   "
   id="polygon3"
   style="fill:#d5693b;fill-opacity:1" />
		<path
   fill="#FFFFFF"
   d="M57.143,95.313v16.005c0,37.572,66.668,69.633,66.668,69.633h0.006c0,0,66.662-32.061,66.662-69.633    V95.313H57.143z M179.303,111.318c0,22.574-37.013,46.354-55.486,55.756h-0.006c-18.479-9.401-55.493-33.184-55.493-55.756v-3.084    l55.493-6.351l55.494,6.351v3.084H179.303z"
   id="path5"
   style="fill:#d5693b;fill-opacity:1" />
		<g
   id="g13"
   style="fill:#d5693b;fill-opacity:1">
			<path
   fill="#FFFFFF"
   d="M111.389,114.288v33.44h-5.958V121.17l-5.613,4.102v-6.494l6.103-4.49L111.389,114.288L111.389,114.288z"
   id="path7"
   style="fill:#d5693b;fill-opacity:1" />
			<path
   fill="#FFFFFF"
   d="M135.309,136.695v5.175h-3.224v5.858h-5.565v-5.858h-12.008v-5.419l9.765-22.163h7.809v22.407H135.309z      M126.716,136.695v-16.452l-7.128,16.452H126.716z"
   id="path9"
   style="fill:#d5693b;fill-opacity:1" />
			<path
   fill="#FFFFFF"
   d="M147.807,114.288v33.44h-5.959V121.17l-5.613,4.102v-6.494l6.104-4.49L147.807,114.288L147.807,114.288z"
   id="path11"
   style="fill:#d5693b;fill-opacity:1" />
		</g>
		<g
   id="g35"
   style="fill:#d5693b;fill-opacity:1">
			<path
   fill="#FFFFFF"
   d="M19.488,54.792h9.833c2.629,0,4.665,0.65,6.111,1.948c1.443,1.298,2.165,3.132,2.165,5.501v8.13     c0,2.369-0.722,4.204-2.165,5.5c-1.446,1.299-3.482,1.947-6.111,1.947h-3.943v10.321h-5.89V54.792z M31.756,62.825     c0-1.948-1.023-2.921-3.067-2.921h-3.311v12.852h3.311c2.044,0,3.067-0.99,3.067-2.97V62.825z"
   id="path15"
   style="fill:#d5693b;fill-opacity:1" />
			<path
   fill="#FFFFFF"
   d="M55.902,88.139l-1.607-8.324h-7.497l-1.557,8.324h-5.599l6.913-33.348h8.129l6.866,33.348H55.902z      M47.722,74.849h5.599L50.498,60.05L47.722,74.849z"
   id="path17"
   style="fill:#d5693b;fill-opacity:1" />
			<path
   fill="#FFFFFF"
   d="M70.505,75.58v12.559h-5.842V54.792h9.834c2.629,0,4.665,0.642,6.11,1.924     c1.443,1.282,2.166,3.108,2.166,5.477v5.696c0,3.765-1.364,6.134-4.09,7.107L83.94,88.14h-6.425l-4.624-12.56H70.505z      M70.505,59.806v11.052h3.409c1.07,0,1.841-0.236,2.312-0.707c0.47-0.47,0.707-1.242,0.707-2.312V62.63     c0-1.882-1.007-2.824-3.019-2.824H70.505z"
   id="path19"
   style="fill:#d5693b;fill-opacity:1" />
			<path
   fill="#FFFFFF"
   d="M101.76,88.139l-1.606-8.324h-7.497l-1.559,8.324H85.5l6.911-33.348h8.131l6.863,33.348H101.76z      M93.581,74.849h5.598L96.355,60.05L93.581,74.849z"
   id="path21"
   style="fill:#d5693b;fill-opacity:1" />
			<path
   fill="#FFFFFF"
   d="M128.973,62.387v3.018c0,3.083-1.138,5.047-3.408,5.891c2.465,0.747,3.699,2.743,3.699,5.988v3.262     c0,5.063-2.695,7.594-8.082,7.594H110.52V54.792h10.369C126.277,54.792,128.973,57.323,128.973,62.387z M120.014,59.758h-3.65     v9.006h3.65c2.143,0,3.214-1.006,3.214-3.019v-3.017C123.228,60.748,122.156,59.758,120.014,59.758z M123.52,80.204v-3.261     c0-2.013-1.071-3.019-3.212-3.019h-3.944v9.25h3.944C122.449,83.174,123.52,82.185,123.52,80.204z"
   id="path23"
   style="fill:#d5693b;fill-opacity:1" />
			<path
   fill="#FFFFFF"
   d="M139.876,75.58v12.559h-5.842V54.792h9.834c2.629,0,4.665,0.642,6.11,1.924     c1.442,1.282,2.164,3.108,2.164,5.477v5.696c0,3.765-1.361,6.134-4.088,7.107l5.258,13.144h-6.426l-4.625-12.559L139.876,75.58     L139.876,75.58z M139.876,59.806v11.052h3.409c1.07,0,1.841-0.236,2.313-0.707c0.471-0.47,0.707-1.242,0.707-2.312V62.63     c0-1.882-1.008-2.824-3.02-2.824H139.876z"
   id="path25"
   style="fill:#d5693b;fill-opacity:1" />
			<path
   fill="#FFFFFF"
   d="M157.012,54.792h5.891V88.14h-5.891V54.792z"
   id="path27"
   style="fill:#d5693b;fill-opacity:1" />
			<path
   fill="#FFFFFF"
   d="M166.65,62.192c0-2.434,0.811-4.317,2.434-5.647c1.623-1.331,3.951-1.996,6.986-1.996     c3.033,0,5.396,0.309,7.084,0.925v5.599c-1.883-0.747-4.106-1.121-6.67-1.121c-2.564,0-3.846,0.974-3.846,2.921v1.314     c0,0.973,0.178,1.728,0.536,2.264c0.354,0.535,1.054,1.08,2.093,1.63l5.599,3.165c2.629,1.428,3.942,3.602,3.942,6.523v2.873     c0,2.466-0.894,4.374-2.677,5.72c-1.786,1.346-4.334,2.02-7.644,2.02c-3.313,0-5.795-0.356-7.449-1.071v-5.647     c2.077,0.875,4.429,1.314,7.059,1.314c3.213,0,4.819-1.005,4.819-3.018v-1.266c0-0.843-0.17-1.5-0.511-1.972     c-0.34-0.47-0.965-0.95-1.874-1.436l-5.354-2.92c-3.019-1.657-4.527-4.042-4.527-7.157V62.192L166.65,62.192z"
   id="path29"
   style="fill:#d5693b;fill-opacity:1" />
			<path
   fill="#FFFFFF"
   d="M202.725,88.139l-1.607-8.324h-7.497l-1.558,8.324h-5.6l6.914-33.348h8.129l6.864,33.348H202.725z      M194.545,74.849h5.598L197.32,60.05L194.545,74.849z"
   id="path31"
   style="fill:#d5693b;fill-opacity:1" />
			<path
   fill="#FFFFFF"
   d="M209.979,62.192c0-2.434,0.81-4.317,2.434-5.647c1.622-1.331,3.951-1.996,6.986-1.996     c3.033,0,5.396,0.309,7.082,0.925v5.599c-1.883-0.747-4.106-1.121-6.67-1.121c-2.563,0-3.847,0.974-3.847,2.921v1.314     c0,0.973,0.181,1.728,0.537,2.264c0.356,0.535,1.054,1.08,2.095,1.63l5.598,3.165c2.63,1.428,3.943,3.602,3.943,6.523v2.873     c0,2.466-0.894,4.374-2.677,5.72c-1.787,1.346-4.333,2.02-7.644,2.02s-5.793-0.356-7.448-1.071v-5.647     c2.077,0.875,4.431,1.314,7.06,1.314c3.213,0,4.82-1.005,4.82-3.018v-1.266c0-0.843-0.172-1.5-0.512-1.972     c-0.342-0.47-0.967-0.95-1.875-1.436l-5.354-2.92c-3.019-1.657-4.526-4.042-4.526-7.157v-3.017H209.979z"
   id="path33"
   style="fill:#d5693b;fill-opacity:1" />
		</g>
	</g>
</g>
</svg>
